<?xml version="1.0" standalone="no"?>
<!DOCTYPE svg PUBLIC "-//W3C//DTD SVG 20010904//EN"
 "http://www.w3.org/TR/2001/REC-SVG-20010904/DTD/svg10.dtd">
<svg version="1.0" xmlns="http://www.w3.org/2000/svg"
 width="4252.000000pt" height="1000.000000pt" viewBox="0 0 4252.000000 1000.000000"
 preserveAspectRatio="xMidYMid meet">

<g transform="translate(0.000000,1000.000000) scale(0.100000,-0.100000)"
fill="#000000" stroke="none">
<path d="M4660 9985 c-8 -2 -73 -8 -145 -15 -107 -10 -261 -30 -405 -55 -75
-13 -316 -67 -420 -94 -126 -34 -386 -119 -447 -147 -17 -7 -35 -14 -40 -14
-10 0 -144 -56 -238 -100 -209 -98 -311 -150 -450 -230 -22 -12 -60 -34 -85
-48 -57 -32 -318 -208 -346 -233 -11 -11 -25 -19 -31 -19 -6 0 -13 -4 -15 -8
-1 -4 -41 -37 -87 -72 -47 -35 -92 -71 -101 -79 -35 -33 -75 -65 -96 -76 -31
-16 -105 -83 -264 -240 -120 -119 -170 -171 -301 -319 -60 -69 -252 -320 -306
-402 -7 -11 -31 -45 -53 -77 -22 -32 -40 -60 -40 -63 0 -3 -9 -17 -19 -32 -68
-96 -125 -199 -246 -442 -53 -107 -103 -208 -111 -223 -8 -16 -14 -34 -14 -40
0 -7 -7 -25 -16 -42 -9 -16 -20 -41 -24 -55 -5 -14 -18 -50 -30 -80 -25 -64
-99 -284 -128 -385 -42 -140 -50 -171 -56 -210 -4 -22 -13 -60 -20 -85 -7 -25
-21 -88 -30 -140 -9 -52 -23 -133 -31 -180 -35 -204 -55 -480 -55 -775 0 -159
5 -333 10 -385 6 -52 15 -140 20 -195 6 -55 16 -136 24 -180 8 -44 22 -125 32
-180 9 -55 25 -127 36 -160 10 -33 20 -69 22 -80 2 -11 4 -23 5 -27 0 -5 8 -8
16 -8 8 0 15 -4 15 -9 0 -13 -17 -23 -23 -14 -2 5 -2 1 1 -7 2 -8 6 -32 9 -53
3 -20 10 -37 15 -37 5 0 7 -4 3 -9 -3 -5 -1 -20 4 -33 5 -13 21 -63 36 -113
15 -49 39 -121 52 -160 14 -38 38 -106 54 -150 15 -45 35 -94 43 -110 9 -17
16 -34 16 -39 0 -5 12 -34 26 -65 15 -31 47 -99 71 -151 25 -52 50 -104 56
-115 6 -11 25 -45 41 -76 29 -52 90 -158 119 -203 102 -164 184 -291 199 -311
25 -31 65 -86 78 -105 8 -12 35 -48 60 -79 25 -32 56 -72 70 -90 14 -18 32
-40 40 -49 9 -10 47 -53 85 -97 93 -108 340 -357 421 -425 37 -30 81 -70 100
-88 19 -17 37 -32 41 -32 3 0 15 -10 27 -22 25 -26 90 -78 115 -92 9 -5 20
-15 24 -23 4 -7 12 -13 18 -13 5 0 37 -22 72 -48 34 -27 116 -84 182 -127 66
-43 136 -89 156 -102 19 -13 38 -23 42 -23 3 0 26 -13 50 -30 25 -16 49 -30
55 -30 5 0 20 -9 34 -19 13 -11 37 -23 51 -26 15 -4 27 -11 27 -16 0 -5 5 -9
11 -9 5 0 7 4 4 10 -3 6 1 7 10 4 9 -4 14 -9 11 -11 -7 -8 37 -42 46 -36 5 2
8 10 8 16 0 8 -3 8 -9 -1 -6 -11 -9 -10 -13 5 -4 14 1 18 24 20 30 2 37 -14
16 -35 -9 -9 -9 -12 0 -12 7 0 12 5 12 10 0 6 3 9 8 9 4 -1 13 -1 20 0 15 1
16 21 1 21 -6 0 -24 9 -40 21 -16 11 -29 17 -29 13 0 -4 -9 1 -19 10 -11 10
-25 15 -30 11 -6 -3 -11 -2 -11 4 0 6 -17 20 -37 31 -21 11 -47 26 -58 32 -11
7 -60 38 -110 68 -49 30 -97 60 -106 65 -60 35 -340 234 -359 255 -3 3 -34 27
-70 54 -36 27 -69 54 -75 60 -5 6 -23 22 -40 34 -72 56 -194 176 -188 185 3 6
2 7 -4 4 -20 -12 -410 397 -493 517 -8 11 -19 26 -25 32 -5 6 -17 22 -25 34
-8 12 -37 52 -65 89 -102 137 -166 231 -236 351 -28 47 -63 103 -79 125 -37
54 -250 480 -250 502 0 2 -8 23 -18 46 -39 89 -82 204 -108 287 -9 30 -21 64
-25 75 -4 11 -19 61 -33 110 -56 195 -67 223 -84 220 -9 -1 -16 -8 -14 -15 1
-6 -2 -8 -8 -5 -8 5 -6 13 4 24 9 10 16 22 16 27 0 5 -4 3 -9 -4 -6 -10 -11
-9 -22 4 -8 10 -9 15 -3 11 7 -4 17 0 24 8 9 11 7 40 -10 137 -43 243 -52 309
-81 598 -17 167 -14 622 5 820 23 232 65 498 107 670 51 209 140 508 179 602
5 13 29 75 54 138 46 120 100 244 116 270 6 8 13 22 17 30 35 84 141 286 173
331 11 15 20 30 20 34 0 6 63 107 131 208 22 32 39 61 39 64 0 4 18 28 40 54
22 26 40 50 40 54 0 14 176 236 285 360 125 143 333 354 429 437 21 18 57 50
80 70 23 21 46 38 52 38 6 0 28 15 50 33 56 47 210 166 258 199 122 84 314
208 323 208 3 0 14 6 22 14 36 33 516 276 544 276 7 0 17 4 22 9 6 5 35 19 65
31 30 12 78 31 105 42 115 46 421 141 570 177 292 70 402 89 735 127 209 24
730 24 900 0 129 -18 155 -19 125 -6 -18 8 -18 9 -2 9 11 1 15 6 11 12 -4 7 0
9 14 5 14 -5 21 -1 24 12 5 16 -1 19 -48 21 -29 1 -76 7 -106 12 -49 10 -774
22 -808 14z m871 -53 c-7 -2 -18 1 -23 6 -8 8 -4 9 13 5 13 -4 18 -8 10 -11z
m-5321 -6143 c0 -6 -4 -7 -10 -4 -5 3 -10 11 -10 16 0 6 5 7 10 4 6 -3 10 -11
10 -16z m3 -26 c-7 -2 -13 -12 -13 -20 0 -9 -3 -14 -6 -10 -10 10 4 37 18 36
10 0 10 -2 1 -6z"/>
<path d="M5638 9929 c-22 -23 -23 -39 -3 -39 8 0 14 3 14 8 -4 22 4 32 34 41
l32 9 -30 0 c-17 0 -38 -8 -47 -19z"/>
<path d="M5690 9921 l-25 -9 25 -2 c18 -2 20 -4 8 -7 -36 -9 -16 -22 55 -33
39 -7 106 -19 147 -27 41 -8 95 -19 120 -24 25 -4 70 -15 100 -23 30 -8 93
-24 140 -36 166 -41 604 -195 655 -229 6 -4 37 -18 70 -31 59 -23 273 -130
409 -204 85 -47 162 -95 324 -202 114 -75 141 -94 227 -159 100 -75 92 -69
140 -110 22 -19 44 -35 49 -35 26 0 429 -379 536 -506 14 -16 50 -58 80 -94
30 -36 57 -67 60 -70 3 -3 34 -41 68 -85 34 -44 74 -94 88 -112 24 -30 39 -51
107 -151 28 -42 30 -43 53 -27 13 8 25 14 25 13 6 -13 4 -46 -2 -42 -4 2 -5
12 -2 22 4 13 3 14 -6 6 -14 -13 -3 -47 13 -41 6 3 12 -6 12 -19 1 -13 -3 -24
-9 -24 -6 0 -2 -7 9 -16 10 -8 13 -12 5 -8 -8 4 -3 -8 11 -27 14 -19 32 -47
40 -64 8 -16 30 -57 49 -90 54 -96 107 -197 128 -242 11 -23 41 -86 66 -140
26 -54 50 -107 55 -118 53 -124 119 -299 146 -385 9 -30 24 -80 34 -110 41
-129 50 -160 70 -245 11 -49 28 -117 36 -150 14 -60 37 -194 68 -395 23 -146
46 -484 46 -660 0 -153 -23 -509 -40 -627 -5 -38 -17 -111 -25 -163 -9 -52
-20 -122 -25 -155 -5 -33 -16 -87 -24 -120 -9 -33 -27 -105 -40 -160 -55 -220
-139 -474 -228 -685 -86 -206 -252 -540 -268 -540 -4 0 -10 -8 -13 -17 -4 -10
-20 -40 -37 -68 -17 -27 -35 -60 -40 -72 -5 -13 -14 -23 -20 -23 -5 0 -10 -6
-10 -14 0 -7 -10 -26 -21 -41 -18 -22 -20 -29 -8 -37 12 -8 12 -9 -1 -5 -19 5
-52 -32 -45 -50 2 -8 1 -11 -5 -8 -5 3 -14 -5 -21 -17 -12 -22 -11 -22 6 -8
17 14 17 14 5 -7 -8 -12 -18 -21 -23 -20 -4 1 -29 -27 -55 -62 -29 -40 -40
-62 -29 -58 31 12 18 -2 -18 -19 -19 -9 -35 -20 -35 -25 0 -5 -31 -48 -70 -95
-38 -48 -70 -91 -70 -95 0 -5 12 -7 28 -4 15 3 33 7 41 9 7 1 18 11 23 20 8
14 7 17 -3 13 -8 -2 -13 -9 -12 -15 3 -13 -24 -9 -39 6 -9 9 -8 12 6 12 11 0
15 4 10 13 -6 9 -5 9 8 0 18 -15 32 -5 18 12 -11 13 5 33 25 33 5 0 11 6 14
13 2 7 -1 9 -8 5 -17 -11 -13 0 6 15 11 10 14 10 9 2 -4 -8 -2 -13 5 -13 9 0
9 -3 0 -14 -8 -10 -9 -16 -1 -21 5 -3 10 -1 10 6 0 7 8 21 18 32 9 11 12 17 6
14 -7 -4 -17 -1 -23 7 -9 10 -8 16 4 26 13 11 14 10 9 -6 -4 -10 -4 -16 1 -12
4 4 15 2 24 -4 9 -7 13 -8 9 -4 -4 5 -2 16 5 24 10 13 9 14 -2 7 -10 -6 -12
-4 -7 4 5 7 11 10 14 7 3 -4 18 6 33 20 23 22 26 30 18 47 -8 14 -8 22 1 31 8
8 10 7 4 -7 -5 -13 -2 -16 10 -11 9 3 16 10 16 15 0 5 6 8 13 7 7 -2 12 7 11
23 0 17 4 25 12 22 14 -5 40 35 36 55 -2 6 4 12 11 12 8 0 18 7 21 15 3 10 1
15 -7 13 -6 -2 -13 2 -14 7 -1 6 7 9 18 7 13 -2 25 7 37 27 9 17 21 31 26 31
5 0 2 8 -5 17 -9 11 -10 14 -2 9 14 -8 88 98 79 112 -3 5 6 16 19 26 13 10 27
31 30 46 3 16 12 31 19 33 8 3 24 27 37 54 12 26 25 50 28 53 14 12 171 347
201 430 7 19 17 39 22 44 4 6 8 17 8 25 0 9 7 29 15 45 8 15 15 34 15 41 0 6
7 27 16 45 9 18 20 46 25 64 4 17 21 69 37 116 16 47 40 121 52 165 12 44 28
101 36 127 8 26 14 54 14 63 0 9 9 49 19 88 11 40 27 115 35 167 8 52 22 138
31 190 26 153 55 531 55 725 0 273 -36 657 -85 905 -8 42 -15 88 -15 103 0 16
-4 36 -9 45 -5 10 -17 51 -26 92 -26 115 -43 180 -60 235 -9 28 -34 106 -56
175 -22 68 -46 138 -53 155 -7 16 -21 55 -31 85 -10 30 -26 71 -35 90 -10 19
-28 60 -40 90 -26 63 -78 178 -91 200 -5 8 -14 26 -19 40 -6 14 -17 36 -25 50
-9 14 -27 50 -42 80 -14 30 -30 57 -34 60 -4 3 -13 17 -19 30 -6 14 -21 43
-35 65 -13 22 -27 47 -31 55 -23 47 -87 135 -96 132 -6 -2 -8 4 -5 12 4 9 1
15 -5 13 -7 -1 -12 5 -13 13 0 21 -24 60 -35 60 -5 0 -8 -6 -6 -12 1 -7 1 -9
-2 -5 -2 4 -11 0 -19 -10 -13 -16 -13 -15 -1 7 7 14 11 29 10 33 -1 5 2 6 8 2
6 -3 7 0 4 10 -4 9 -12 14 -20 11 -8 -3 -11 2 -9 14 2 10 -3 21 -11 24 -8 3
-14 12 -14 20 0 8 -4 16 -8 18 -4 2 -23 26 -42 53 -19 28 -37 52 -41 55 -3 3
-20 26 -39 53 -18 26 -37 47 -42 47 -4 0 -8 7 -8 15 0 8 -9 19 -20 25 -11 6
-20 17 -20 25 0 7 -4 15 -9 17 -5 2 -26 23 -46 48 -142 171 -520 549 -551 550
-5 1 -21 11 -35 23 -84 71 -233 190 -289 230 -98 70 -309 210 -365 242 -249
142 -357 198 -540 279 -16 8 -55 25 -85 39 -30 14 -66 28 -80 32 -14 4 -29 11
-35 15 -5 4 -19 10 -30 13 -11 3 -78 26 -150 52 -71 26 -146 50 -165 55 -19 4
-48 13 -65 20 -54 22 -178 53 -330 84 -38 7 -100 21 -137 29 -82 20 -214 29
-248 18z m3476 -7626 c-1 -8 -5 -17 -8 -21 -5 -4 -4 16 1 34 3 9 9 -1 7 -13z
m-123 -163 c-5 -11 -7 -11 -14 0 -7 11 -9 10 -9 -1 0 -8 -3 -12 -6 -8 -9 9 3
24 20 24 8 0 12 -6 9 -15z m-53 -62 c0 -5 -2 -10 -4 -10 -3 0 -8 5 -11 10 -3
6 -1 10 4 10 6 0 11 -4 11 -10z"/>
<path d="M5225 9774 c-128 -33 -203 -125 -213 -263 -4 -61 -1 -74 28 -134 41
-86 91 -130 175 -152 75 -21 126 -16 202 21 125 59 188 237 129 365 -36 76
-65 108 -134 143 -33 17 -149 29 -187 20z m148 -85 c41 -21 96 -87 107 -131
15 -54 5 -133 -21 -170 -11 -16 -41 -44 -66 -63 -40 -31 -53 -35 -103 -35 -41
0 -64 5 -81 19 -13 10 -33 21 -45 25 -11 3 -30 23 -41 44 -60 106 -27 255 67
306 31 17 153 20 183 5z"/>
<path d="M4568 9751 c-58 -3 -109 -9 -113 -12 -5 -6 6 -235 23 -449 l7 -85 35
0 35 0 3 52 c2 29 -1 76 -7 105 -7 39 -6 56 3 65 7 8 51 15 106 19 118 7 176
20 217 51 64 47 68 157 8 221 -32 35 -33 36 -121 38 -49 1 -137 -1 -196 -5z
m239 -72 c36 -13 43 -25 43 -77 0 -40 -3 -44 -36 -58 -35 -15 -262 -40 -271
-30 -3 3 -6 40 -7 83 l-1 78 80 6 c138 9 163 9 192 -2z"/>
<path d="M5751 9721 c-17 -11 -30 -65 -41 -161 -8 -79 -15 -125 -40 -290 -11
-77 -2 -90 64 -90 23 0 57 -5 76 -11 19 -5 73 -17 120 -26 47 -8 97 -17 113
-20 26 -5 27 -3 27 34 l0 40 -137 27 c-76 14 -145 26 -155 26 -27 0 -27 -9 1
240 6 52 17 120 25 150 9 35 11 59 5 66 -13 16 -44 23 -58 15z"/>
<path d="M4045 9663 c-61 -11 -114 -29 -142 -48 -31 -20 -83 -86 -83 -104 0
-5 -7 -14 -15 -21 -11 -9 -15 -34 -15 -98 0 -73 4 -93 28 -140 29 -59 93 -120
145 -139 42 -15 131 -16 189 0 46 12 138 85 138 109 0 6 7 20 16 30 28 31 42
115 29 173 -24 100 -108 215 -157 215 -13 0 -28 4 -33 9 -12 10 -73 19 -100
14z m116 -101 c27 -15 52 -36 55 -47 4 -11 12 -27 19 -35 21 -24 34 -106 24
-150 -14 -61 -63 -127 -107 -141 -50 -16 -140 -17 -179 0 -64 27 -113 114
-113 204 0 58 3 69 35 110 30 39 77 71 135 91 26 9 81 -4 131 -32z"/>
<path d="M6276 9608 c-24 -84 -31 -105 -38 -114 -4 -6 -21 -62 -37 -125 -16
-63 -37 -137 -46 -165 -9 -28 -15 -67 -13 -85 3 -30 7 -34 34 -37 28 -3 31 0
41 40 6 24 23 74 37 112 14 38 28 90 32 115 3 25 20 88 37 139 24 71 29 97 21
110 -14 21 -63 28 -68 10z"/>
<path d="M6417 9539 c-9 -35 2 -46 63 -59 33 -7 64 -18 69 -24 6 -7 4 -30 -4
-61 -35 -126 -79 -264 -96 -303 -27 -60 -25 -90 7 -102 14 -6 29 -10 33 -10
11 0 44 91 72 194 12 44 25 87 29 95 11 23 38 92 45 119 8 27 12 27 103 2 90
-25 89 -25 96 4 8 32 -2 56 -23 56 -9 0 -21 4 -27 10 -5 5 -45 19 -87 30 -43
10 -92 26 -110 34 -42 19 -106 36 -138 36 -19 0 -28 -6 -32 -21z"/>
<path d="M3462 9480 c-19 -4 -39 -13 -45 -19 -6 -6 -18 -11 -28 -11 -9 0 -27
-8 -40 -18 -13 -10 -46 -25 -74 -32 -75 -20 -108 -39 -101 -58 33 -102 65
-184 90 -232 7 -14 19 -47 25 -75 18 -72 63 -165 81 -165 8 1 23 7 32 14 17
12 16 16 -9 67 -41 82 -54 137 -36 155 8 8 22 14 32 14 9 0 43 13 74 29 l57
29 33 -28 c137 -119 163 -140 175 -140 19 0 52 19 52 30 0 5 -28 30 -62 57
-35 26 -65 51 -67 56 -2 5 -12 17 -22 25 -24 21 -24 28 0 59 40 50 36 161 -7
211 -34 39 -87 49 -160 32z m101 -83 c22 -15 32 -74 19 -108 -6 -15 -21 -29
-36 -33 -13 -3 -54 -20 -90 -36 -35 -17 -85 -33 -110 -36 l-44 -6 -11 38 c-6
22 -11 47 -11 56 0 9 -4 20 -10 23 -19 12 -10 35 18 41 15 4 38 13 52 21 82
45 190 65 223 40z"/>
<path d="M6990 9289 c-25 -22 -58 -54 -75 -70 -16 -16 -35 -29 -41 -29 -6 0
-22 -16 -35 -35 -13 -19 -27 -35 -32 -35 -10 0 -111 -83 -165 -135 l-43 -42
26 -22 c30 -22 46 -19 79 18 11 12 24 21 31 21 7 0 20 9 30 20 21 24 38 25 54
6 7 -8 26 -18 43 -21 17 -4 52 -18 77 -30 26 -13 58 -28 73 -34 24 -9 27 -16
34 -81 5 -58 11 -74 31 -90 13 -10 31 -16 40 -13 13 5 14 21 9 107 -3 56 -8
182 -12 281 -6 193 -15 225 -57 225 -12 0 -42 -19 -67 -41z m40 -131 c0 -24 3
-73 7 -110 4 -47 2 -68 -5 -68 -6 0 -34 14 -62 30 -28 17 -57 30 -64 30 -6 0
-21 7 -32 15 -18 14 -18 16 -1 26 10 6 45 35 79 65 33 30 64 54 69 54 5 0 9
-19 9 -42z"/>
<path d="M3005 9264 c-73 -41 -161 -84 -170 -84 -2 0 -23 -13 -47 -28 -24 -16
-58 -34 -75 -42 -36 -14 -40 -25 -18 -53 13 -18 15 -18 57 3 24 11 59 29 78
40 19 10 40 19 47 20 15 0 45 -44 67 -100 10 -25 23 -52 31 -60 7 -8 19 -33
26 -55 21 -61 89 -175 104 -175 15 0 45 27 45 39 0 5 -8 19 -19 32 -19 24
-131 251 -131 265 0 4 -11 24 -25 44 -31 45 -26 62 23 80 29 10 80 39 121 67
7 5 -18 53 -26 52 -5 0 -44 -21 -88 -45z"/>
<path d="M7423 9068 c-41 -78 -172 -289 -189 -303 -11 -10 -64 -99 -64 -109 0
-13 34 -36 54 -36 19 0 33 18 75 93 29 50 61 99 71 107 10 8 26 30 35 49 13
26 19 31 25 20 8 -16 30 -134 59 -323 12 -77 25 -132 33 -137 23 -15 38 -10
48 15 5 13 13 27 18 30 5 3 22 31 38 61 15 31 38 68 51 81 13 14 23 28 23 32
0 10 85 144 103 162 15 15 21 33 18 56 -1 14 -50 36 -62 29 -5 -4 -9 -11 -9
-16 0 -5 -19 -35 -42 -67 -54 -71 -84 -119 -99 -154 -6 -16 -15 -28 -20 -28
-5 0 -12 0 -16 0 -5 -1 -13 30 -20 67 -45 265 -67 380 -76 391 -16 21 -36 13
-54 -20z"/>
<path d="M2540 9000 c-25 -22 -49 -40 -53 -40 -10 0 -89 -57 -137 -99 -19 -17
-44 -37 -54 -44 -19 -14 -19 -17 24 -83 24 -38 56 -83 71 -101 15 -17 30 -41
34 -53 3 -11 20 -35 36 -53 17 -17 39 -48 49 -67 10 -19 27 -43 38 -53 19 -18
21 -18 59 1 21 11 47 29 57 41 11 12 23 21 28 21 12 0 80 51 91 67 4 7 13 13
18 13 12 0 119 82 119 91 0 3 -8 13 -19 23 -17 16 -21 14 -77 -24 -32 -23 -71
-49 -86 -58 -16 -9 -28 -20 -28 -24 0 -5 -5 -8 -11 -8 -6 0 -29 -16 -50 -35
-49 -44 -71 -44 -92 -2 -9 17 -26 44 -38 59 -33 41 -20 68 56 118 49 32 65 48
65 65 0 13 -7 25 -15 29 -19 7 -89 -29 -113 -58 -9 -11 -29 -27 -45 -33 -26
-12 -28 -11 -51 25 -13 20 -30 43 -39 50 -18 15 -12 42 9 42 7 0 26 11 41 25
43 38 47 41 92 69 23 15 51 36 61 46 11 11 29 20 40 20 26 0 27 31 2 53 -26
23 -31 22 -82 -23z"/>
<path d="M4910 8925 c-85 -7 -222 -18 -305 -24 -139 -10 -208 -23 -500 -93
-22 -5 -62 -13 -90 -18 -192 -34 -661 -242 -920 -408 -205 -131 -378 -257
-515 -377 -106 -93 -355 -350 -440 -455 -25 -30 -49 -60 -55 -66 -46 -54 -195
-259 -195 -269 0 -3 -16 -27 -35 -54 -19 -26 -35 -51 -35 -54 0 -3 -14 -27
-32 -53 -60 -89 -224 -426 -273 -561 -14 -38 -29 -75 -34 -83 -7 -13 -30 -85
-105 -330 -8 -25 -24 -90 -36 -145 -12 -55 -28 -129 -36 -165 -14 -64 -26
-150 -44 -320 -36 -325 -14 -880 45 -1150 7 -36 23 -110 35 -165 60 -278 174
-591 322 -890 75 -152 86 -173 136 -253 17 -29 32 -55 32 -58 0 -4 15 -27 32
-53 18 -25 38 -54 43 -63 31 -53 157 -222 189 -254 11 -12 41 -46 66 -75 171
-203 356 -385 545 -535 101 -81 327 -244 355 -257 8 -4 31 -17 52 -29 114 -71
346 -193 454 -240 21 -9 59 -25 84 -37 70 -31 321 -118 380 -131 19 -5 78 -20
132 -33 346 -90 738 -127 1131 -107 264 13 448 41 752 116 149 36 407 122 515
172 36 16 88 39 115 51 61 27 138 67 225 115 36 19 74 40 85 45 11 6 52 30 90
55 39 25 90 57 115 72 67 41 317 228 340 255 3 3 43 39 90 80 117 102 211 196
315 314 48 55 116 131 151 170 35 38 64 73 64 78 0 5 7 15 15 24 9 8 54 74
102 146 47 73 94 144 104 159 11 15 19 29 19 31 0 3 24 47 53 98 53 94 106
200 147 294 12 28 28 64 35 81 119 263 227 659 275 1009 42 304 44 742 4 1055
-28 223 -105 574 -160 723 -8 23 -19 54 -24 68 -60 190 -239 573 -350 750
-201 320 -334 491 -570 729 -245 247 -409 378 -730 582 -25 15 -52 33 -60 38
-39 26 -329 172 -425 214 -172 75 -340 133 -420 146 -27 4 -104 21 -170 38
-268 66 -269 66 -675 92 -91 6 -185 12 -210 14 -25 2 -115 -2 -200 -9z m-2582
-3503 c-3 -675 -2 -720 15 -775 34 -107 88 -168 193 -221 41 -20 72 -27 150
-32 201 -12 316 32 391 150 48 75 53 155 53 909 l0 687 210 0 210 0 0 -632 c0
-652 -8 -872 -36 -993 -51 -219 -216 -379 -463 -448 -68 -19 -100 -21 -316
-21 -197 0 -252 3 -310 18 -99 25 -224 90 -289 150 -56 51 -136 151 -136 170
0 5 -6 17 -13 25 -8 9 -22 43 -31 76 -36 124 -46 307 -53 992 l-6 663 209 2
c115 2 213 1 217 0 4 -2 7 -326 5 -720z m2301 681 c20 -85 30 -122 51 -198 53
-194 130 -485 146 -550 7 -33 22 -91 33 -130 58 -217 95 -357 108 -410 15 -64
33 -94 33 -56 0 12 14 75 31 139 17 64 46 177 65 250 66 257 103 398 124 477
12 44 34 130 50 190 58 224 81 308 86 317 3 4 144 8 314 8 l309 0 3 -142 c2
-79 5 -545 6 -1035 l2 -893 -195 0 -195 0 0 807 c0 443 -2 804 -6 801 -5 -5
-117 -445 -179 -703 -14 -55 -36 -145 -50 -200 -15 -55 -31 -118 -36 -140 -5
-22 -16 -65 -24 -95 -8 -30 -26 -102 -40 -160 -25 -103 -45 -183 -67 -267
l-11 -43 -201 0 -201 0 -28 113 c-16 61 -35 137 -42 167 -16 67 -68 277 -95
380 -16 62 -54 212 -74 295 -3 11 -20 76 -37 145 -17 69 -38 150 -45 180 -7
30 -29 116 -48 190 l-34 135 -2 -780 c-2 -429 -4 -784 -5 -790 -2 -5 -3 -16
-4 -22 -1 -10 -46 -13 -191 -13 l-190 0 0 1035 0 1035 315 0 314 0 10 -37z
m2839 -35 c17 -40 38 -93 47 -118 9 -25 25 -65 35 -90 30 -72 90 -221 111
-275 11 -27 24 -59 29 -70 32 -73 55 -130 80 -195 16 -41 49 -124 75 -185 25
-60 53 -130 62 -155 8 -24 25 -67 38 -95 12 -27 37 -88 56 -135 18 -47 71
-179 117 -295 47 -115 91 -228 99 -250 8 -22 18 -44 23 -50 4 -5 13 -27 18
-47 l10 -38 -224 0 -224 0 -20 44 c-11 25 -20 49 -20 55 0 6 -7 25 -14 43 -8
18 -27 65 -41 103 -14 39 -30 79 -35 90 -5 11 -18 45 -28 75 l-18 55 -417 3
-417 2 -9 -22 c-10 -24 -149 -414 -156 -435 -3 -10 -57 -13 -225 -13 -121 0
-220 1 -220 3 1 9 31 100 37 110 4 7 19 46 34 87 15 41 46 122 69 180 23 58
52 134 65 170 13 36 40 103 60 150 19 46 35 88 35 93 0 9 13 40 51 125 10 23
19 48 19 55 0 6 6 24 14 39 8 14 19 43 26 65 7 21 16 43 20 48 4 6 17 39 30
75 25 71 35 95 74 186 14 34 26 68 26 76 0 8 4 18 8 24 4 5 18 34 29 64 113
289 136 349 149 377 8 17 14 34 14 38 0 3 10 29 21 56 l21 49 217 0 217 0 32
-72z m-4250 -3246 l31 -28 -37 -41 c-20 -23 -57 -65 -82 -94 -25 -29 -74 -81
-109 -115 l-64 -63 53 -48 c29 -26 67 -60 84 -75 l31 -27 -32 -32 -32 -32 -77
69 c-43 38 -93 83 -113 101 l-35 31 34 39 c19 21 57 61 84 89 28 29 89 97 136
153 47 55 88 101 91 101 3 0 19 -13 37 -28z m3891 -136 c38 -20 63 -62 65
-106 1 -36 2 -37 36 -37 47 0 73 -15 107 -59 35 -46 44 -137 18 -177 -40 -61
-115 -82 -181 -51 -51 25 -56 35 -27 68 24 29 25 29 53 13 35 -21 49 -21 72 0
22 20 23 45 3 88 -24 49 -89 72 -115 40 -17 -21 -23 -19 -43 15 -17 28 -17 31
-1 55 16 25 16 27 -3 53 -39 52 -96 36 -91 -25 2 -28 -2 -37 -24 -51 -37 -22
-50 -8 -56 62 -4 53 -3 57 31 91 30 30 42 35 81 35 26 0 60 -7 75 -14z m-3560
-124 c39 -16 171 -105 171 -116 -1 -6 -12 -24 -25 -40 l-24 -30 -84 57 c-47
31 -91 59 -98 62 -8 3 -23 -9 -36 -27 -35 -52 -37 -65 -12 -78 12 -7 53 -32
90 -56 l69 -45 -26 -39 -26 -39 -27 18 c-43 30 -120 80 -140 90 -16 9 -24 3
-55 -45 -37 -57 -43 -74 -27 -74 12 0 177 -113 180 -123 1 -4 -6 -23 -17 -42
l-20 -33 -128 84 c-70 46 -131 84 -136 84 -18 0 -5 29 64 134 39 61 92 143
117 181 25 39 51 76 58 83 7 8 18 22 23 33 10 18 12 18 51 -7 22 -14 48 -28
58 -32z m3283 -87 c64 -43 160 -183 193 -280 20 -62 13 -104 -24 -144 -24 -26
-36 -31 -76 -31 -72 0 -116 31 -191 138 -73 101 -97 163 -92 234 4 51 9 65 32
85 38 33 108 32 158 -2z m-3010 -73 c4 -4 8 -58 9 -119 1 -62 4 -113 7 -113 2
0 42 32 88 70 45 39 86 70 90 70 13 0 83 -35 84 -41 0 -3 -31 -30 -69 -60 -38
-30 -98 -76 -132 -104 -64 -50 -71 -60 -134 -199 -19 -44 -29 -56 -38 -47 -6
6 -19 11 -28 11 -40 0 -38 24 8 120 l45 95 -5 177 -6 178 37 -16 c20 -8 40
-18 44 -22z m2721 -19 c3 -16 14 -57 25 -93 33 -107 69 -230 95 -326 24 -88
24 -91 6 -102 -30 -19 -37 -15 -49 26 -10 36 -51 178 -92 317 -50 172 -49 168
-25 187 30 24 34 23 40 -9z m-215 -130 c59 -39 83 -96 65 -157 -9 -29 -8 -32
27 -48 126 -61 117 -260 -14 -296 -51 -15 -114 8 -143 51 -13 18 -23 36 -23
40 0 4 14 14 31 23 29 15 32 14 53 -5 25 -23 65 -28 84 -9 30 30 -3 129 -47
143 -11 3 -30 1 -41 -5 -26 -14 -30 -10 -39 32 -6 27 -3 36 16 51 28 23 30 60
3 87 -23 23 -33 24 -61 10 -13 -8 -19 -21 -19 -45 0 -27 -4 -35 -17 -35 -10 0
-28 -3 -40 -6 -22 -6 -23 -3 -23 47 0 86 44 136 123 138 21 1 50 -7 65 -16z
m-2000 -64 c28 -9 32 -17 46 -82 9 -40 25 -123 36 -186 10 -62 21 -115 23
-118 3 -2 14 29 25 69 41 144 74 253 76 256 2 2 66 -17 73 -22 3 -2 -32 -129
-82 -301 -26 -88 -50 -170 -52 -183 -7 -32 -14 -33 -60 -12 -40 17 -41 20 -52
86 -24 148 -43 250 -51 274 l-8 25 -7 -30 c-11 -47 -35 -135 -56 -199 -10 -33
-19 -68 -19 -78 0 -21 -14 -22 -58 -7 l-30 10 28 102 c15 56 40 143 55 192 15
50 31 106 37 125 14 53 30 90 38 90 4 0 21 -5 38 -11z m1748 -43 c4 -24 -1
-56 -17 -103 -22 -61 -24 -85 -24 -240 l0 -171 -34 -6 c-19 -3 -37 -3 -39 -1
-2 2 -7 53 -10 113 -5 109 10 259 30 295 17 33 4 35 -84 12 l-88 -23 -10 37
c-5 20 -10 41 -10 48 0 6 42 21 98 33 53 12 111 25 127 30 49 13 54 12 61 -24z
m-1244 -67 c23 -12 58 -72 58 -99 0 -36 -40 -91 -77 -106 -89 -38 -183 49
-153 141 23 69 103 99 172 64z m842 -21 c55 -49 78 -125 84 -274 5 -134 -7
-180 -55 -211 -34 -23 -104 -21 -136 3 -77 58 -126 338 -76 441 38 79 118 97
183 41z m-339 -31 c78 -78 66 -171 -42 -312 -34 -45 -63 -86 -63 -90 0 -4 36
-5 80 -3 l80 3 0 -47 0 -48 -135 0 c-74 0 -138 0 -142 -1 -16 -2 0 67 24 111
28 50 55 88 101 139 60 65 77 134 46 179 -29 42 -83 21 -97 -39 -6 -24 -10
-25 -43 -20 -20 3 -36 9 -35 14 0 4 1 20 1 37 0 20 12 41 38 70 37 38 42 40
96 40 52 0 61 -3 91 -33z"/>
<path d="M7198 5617 c-9 -23 -44 -121 -78 -217 -34 -96 -88 -248 -121 -337
-32 -88 -59 -164 -59 -167 0 -3 126 -6 280 -6 178 0 280 4 280 10 0 5 -18 56
-39 112 -37 98 -91 241 -166 443 -18 50 -39 106 -45 125 -6 19 -16 45 -23 57
-12 21 -13 20 -29 -20z"/>
<path d="M6727 2413 c-23 -22 0 -84 72 -193 58 -89 91 -121 121 -118 51 6 34
78 -48 198 -25 36 -56 77 -70 93 -24 25 -60 35 -75 20z"/>
<path d="M4733 2023 c-7 -2 -13 -20 -13 -39 0 -63 70 -81 100 -24 10 20 4 50
-14 62 -12 9 -54 9 -73 1z"/>
<path d="M5583 2002 c-6 -4 -17 -21 -23 -37 -14 -38 14 -256 38 -297 21 -36
58 -38 74 -3 13 29 -3 216 -24 279 -14 42 -46 70 -65 58z"/>
<path d="M30091 8844 c-91 -24 -165 -83 -195 -156 -19 -44 -21 -154 -4 -210
25 -85 123 -163 278 -221 104 -39 164 -73 198 -112 29 -32 32 -42 32 -99 0
-80 -25 -121 -95 -156 -44 -22 -62 -25 -155 -24 -96 1 -191 18 -273 50 -16 6
-18 1 -15 -57 l3 -64 55 -20 c45 -16 82 -19 210 -19 138 -1 161 2 211 22 126
50 189 141 189 272 0 156 -68 229 -292 314 -102 38 -163 72 -196 111 -29 32
-32 42 -32 98 0 80 24 121 87 149 40 18 60 20 147 15 66 -3 122 -12 160 -26
33 -12 61 -19 63 -17 2 2 13 26 23 54 l19 50 -42 17 c-107 43 -276 56 -376 29z"/>
<path d="M38302 8328 c-111 -288 -205 -533 -209 -546 -5 -22 -4 -23 57 -20
l63 3 63 165 62 165 215 3 215 2 48 -122 c26 -68 55 -143 64 -168 l18 -45 66
-3 c36 -2 66 -2 66 0 0 2 -94 246 -209 543 l-209 540 -53 3 -54 3 -203 -523z
m343 118 c41 -114 75 -212 75 -217 0 -5 -74 -9 -165 -9 -91 0 -165 2 -165 4 0
1 31 87 70 189 38 102 75 207 81 233 10 39 14 44 20 29 5 -11 42 -114 84 -229z"/>
<path d="M12702 8438 c3 -394 4 -404 26 -460 63 -157 207 -237 408 -226 144 8
242 55 309 146 68 94 69 103 73 545 l3 397 -65 0 -66 0 0 -378 c0 -416 -3
-446 -59 -513 -50 -61 -110 -83 -221 -82 -133 0 -204 36 -253 127 -21 40 -22
50 -25 444 l-3 402 -65 0 -65 0 3 -402z"/>
<path d="M15790 8300 l0 -540 61 0 61 0 -4 449 c-2 248 -3 449 -2 448 0 -1
130 -203 288 -449 l288 -448 69 0 69 0 0 540 0 540 -61 0 -62 0 5 -444 5 -444
-146 226 c-81 125 -209 325 -286 444 l-140 218 -72 0 -73 0 0 -540z"/>
<path d="M18910 8300 l0 -540 60 0 60 0 0 540 0 540 -60 0 -60 0 0 -540z"/>
<path d="M21175 8823 c4 -10 86 -241 182 -513 96 -272 180 -507 185 -522 9
-26 14 -28 69 -28 52 0 61 3 69 23 6 12 93 254 193 537 l183 515 -64 3 c-35 2
-66 1 -69 -1 -8 -9 -264 -744 -287 -827 -23 -82 -25 -84 -32 -50 -7 33 -96
296 -235 697 l-64 183 -69 0 c-61 0 -67 -2 -61 -17z"/>
<path d="M24192 8303 l3 -538 298 -3 297 -2 0 60 0 60 -235 0 -235 0 0 195 0
195 220 0 220 0 0 60 0 60 -220 0 -220 0 0 170 0 170 235 0 235 0 0 55 0 55
-300 0 -300 0 2 -537z"/>
<path d="M27020 8301 l0 -541 60 0 60 0 0 225 0 225 113 0 112 -1 128 -224
129 -225 74 0 75 0 -15 28 c-9 15 -73 124 -144 242 l-129 215 46 24 c111 56
161 139 161 265 0 103 -14 148 -67 206 -74 83 -115 93 -380 98 l-223 4 0 -541z
m444 399 c67 -34 89 -66 94 -140 6 -82 -4 -125 -39 -164 -46 -54 -95 -68 -246
-74 l-133 -5 0 208 0 207 138 -4 c122 -3 143 -6 186 -28z"/>
<path d="M32740 8300 l0 -540 65 0 65 0 0 540 0 540 -65 0 -65 0 0 -540z"/>
<path d="M35150 8299 l0 -541 213 5 c152 3 229 9 272 21 189 52 306 171 350
358 19 81 19 255 0 336 -41 175 -166 301 -341 346 -47 12 -113 16 -278 16
l-216 0 0 -541z m432 420 c112 -24 207 -99 249 -197 32 -74 45 -196 31 -297
-21 -157 -77 -241 -199 -302 l-77 -38 -153 -4 -153 -3 0 426 0 426 125 0 c68
0 148 -5 177 -11z"/>
<path d="M41170 8299 l0 -541 213 5 c284 7 370 32 483 139 107 101 149 216
149 408 -1 135 -14 200 -62 294 -54 106 -181 198 -311 225 -29 6 -147 11 -262
11 l-210 0 0 -541z m495 401 c79 -31 154 -105 186 -185 21 -54 23 -76 23 -205
0 -181 -17 -234 -103 -321 -85 -84 -137 -101 -328 -107 l-153 -4 0 427 0 427
158 -4 c133 -4 166 -8 217 -28z"/>
<path d="M2068 8643 c-13 -16 -13 -33 -1 -143 8 -69 19 -149 25 -178 6 -28 9
-55 5 -58 -7 -7 -214 35 -242 49 -31 17 -108 26 -127 16 -45 -24 -11 -72 217
-311 35 -37 69 -77 75 -88 20 -38 70 -21 70 24 0 14 -53 76 -157 184 -90 92
-93 106 -20 85 64 -18 260 -54 265 -49 2 3 -3 55 -12 118 -23 171 -25 198 -15
198 9 0 78 -69 181 -180 57 -62 70 -71 83 -60 25 21 17 55 -20 89 -19 17 -35
35 -35 40 0 4 -33 42 -72 83 -40 41 -97 103 -127 136 -29 34 -59 62 -66 62 -6
0 -19 -8 -27 -17z"/>
<path d="M8060 8579 c-30 -15 -60 -28 -67 -28 -7 -1 -35 -14 -62 -30 -28 -17
-69 -35 -93 -42 -24 -7 -54 -20 -68 -30 -14 -9 -47 -24 -74 -33 -70 -24 -86
-34 -86 -56 0 -45 65 -49 146 -9 l42 22 69 -56 c37 -31 84 -73 104 -93 34 -34
36 -39 27 -73 -23 -84 -21 -114 7 -141 26 -24 27 -25 41 -6 7 11 16 36 19 55
3 20 13 65 21 101 9 36 20 85 25 110 8 44 35 158 60 254 12 46 12 49 -12 67
-30 23 -31 23 -99 -12z m4 -164 c-8 -39 -18 -85 -21 -102 -7 -39 -24 -42 -50
-10 -10 13 -29 29 -41 36 -13 7 -32 26 -42 43 l-19 31 47 25 c40 20 132 52
139 48 1 -1 -5 -33 -13 -71z"/>
<path d="M8660 7958 c-24 -18 -60 -45 -79 -61 -20 -15 -49 -35 -65 -45 -16 -9
-43 -30 -60 -46 -17 -15 -42 -36 -56 -45 -43 -27 -100 -76 -100 -84 0 -5 10
-23 23 -40 12 -18 27 -39 32 -48 28 -44 80 -109 87 -109 5 0 13 -11 18 -25 14
-36 119 -85 182 -85 69 0 165 47 203 99 17 22 33 41 37 41 3 0 12 23 18 51 17
72 6 163 -25 211 -14 21 -25 41 -25 46 0 4 -19 31 -42 59 -24 28 -51 65 -60
82 -21 39 -34 39 -88 -1z m71 -101 c14 -17 33 -46 42 -62 8 -17 24 -37 35 -46
23 -20 37 -101 27 -151 -8 -40 -64 -100 -120 -130 -47 -25 -117 -28 -142 -6
-10 9 -33 23 -50 32 -18 9 -39 29 -48 45 -8 16 -28 44 -45 62 -38 42 -39 71
-2 90 15 8 31 20 35 26 4 7 22 20 40 29 18 9 46 29 62 44 28 27 124 97 135 99
3 1 17 -14 31 -32z"/>
<path d="M1333 7760 c-40 -8 -65 -24 -107 -66 -32 -31 -76 -85 -76 -92 0 -3
-18 -31 -39 -62 -36 -51 -45 -75 -42 -107 0 -7 18 -22 39 -33 20 -12 53 -32
72 -45 139 -95 209 -141 272 -178 l46 -27 35 49 c20 27 44 66 55 88 11 21 29
47 41 57 12 11 21 27 21 36 0 9 5 21 10 26 17 17 14 174 -5 210 -18 37 -105
121 -137 133 -37 14 -140 20 -185 11z m200 -124 c61 -60 74 -112 51 -192 -9
-32 -27 -72 -39 -89 -13 -16 -30 -45 -40 -63 -14 -28 -21 -33 -40 -28 -13 3
-37 18 -52 32 -15 14 -48 38 -73 52 -25 14 -49 30 -55 37 -5 6 -36 26 -67 44
-32 18 -58 37 -58 42 0 5 18 34 40 63 22 29 40 58 40 64 0 7 4 12 10 12 5 0
20 16 32 35 26 39 46 45 140 39 64 -4 70 -6 111 -48z"/>
<path d="M9040 7395 c-25 -14 -78 -41 -117 -61 -40 -20 -73 -40 -73 -44 0 -5
-17 -14 -37 -20 -21 -7 -45 -18 -53 -24 -8 -6 -35 -22 -60 -35 -64 -34 -66
-37 -44 -68 11 -16 33 -56 49 -90 16 -35 32 -63 36 -63 4 0 10 -12 14 -27 3
-16 20 -50 37 -78 17 -27 37 -60 44 -72 14 -23 48 -22 58 2 3 8 -16 54 -41
102 -25 48 -59 112 -75 142 -15 30 -28 62 -28 71 0 20 41 60 61 60 8 0 29 9
46 20 l33 20 20 -40 c20 -39 61 -105 79 -127 14 -16 51 -4 51 17 0 9 -16 48
-35 86 -19 37 -35 75 -35 84 0 15 86 80 105 80 6 0 23 -26 38 -58 16 -31 33
-64 38 -72 5 -8 14 -26 20 -40 50 -110 66 -128 103 -114 21 8 20 16 -4 61 -11
21 -20 45 -20 54 0 9 -7 22 -14 29 -8 6 -24 33 -36 58 -12 26 -27 58 -35 72
-8 14 -22 42 -31 63 -19 44 -34 46 -94 12z"/>
<path d="M1080 7079 c-178 -8 -207 -11 -218 -26 -14 -20 -8 -58 13 -79 7 -8
46 -57 85 -109 39 -52 80 -100 91 -105 10 -6 19 -17 19 -25 0 -7 17 -34 38
-59 20 -24 50 -61 66 -80 35 -45 53 -45 64 -3 11 37 -1 63 -55 115 -18 18 -33
36 -32 40 0 4 11 25 24 47 13 22 29 51 36 65 6 14 15 33 20 42 5 10 9 23 9 29
0 6 9 24 20 39 18 25 28 29 94 35 70 7 75 9 86 36 23 54 32 54 -360 38z m100
-85 c0 -3 -6 -15 -12 -27 -7 -12 -20 -44 -29 -72 -17 -52 -47 -82 -57 -56 -3
8 -19 29 -36 46 -17 17 -38 44 -46 60 -8 17 -16 33 -18 37 -2 4 14 9 35 11 64
6 163 7 163 1z"/>
<path d="M23439 6705 c-324 -54 -572 -231 -689 -489 -84 -185 -93 -330 -88
-1391 5 -892 7 -933 63 -1081 82 -218 263 -401 480 -485 175 -68 394 -97 603
-79 377 33 654 198 791 475 51 102 78 202 91 340 17 164 24 1371 11 1675 -12
280 -28 399 -68 499 -117 293 -364 479 -713 536 -115 18 -372 18 -481 0z m326
-589 c49 -49 49 -37 52 -1066 5 -1166 0 -1241 -72 -1280 -33 -18 -110 -15
-139 4 -52 33 -51 12 -51 1161 0 589 4 1088 8 1109 5 23 21 51 39 68 25 24 39
28 85 28 43 0 58 -5 78 -24z"/>
<path d="M28375 6704 c-336 -59 -579 -240 -693 -517 -75 -179 -86 -372 -79
-1383 5 -778 9 -862 47 -1002 60 -219 214 -403 427 -511 279 -140 717 -155
1021 -35 249 99 434 299 501 544 43 152 46 241 46 1155 0 1047 -3 1079 -100
1280 -122 252 -355 413 -682 470 -109 19 -378 18 -488 -1z m324 -580 c58 -41
56 4 59 -1104 2 -635 -1 -1046 -7 -1097 -16 -130 -42 -164 -127 -166 -62 0
-90 18 -111 72 -17 43 -18 116 -18 1116 0 1164 -2 1120 56 1170 37 30 111 35
148 9z"/>
<path d="M12700 4950 l0 -1700 390 0 390 0 2 1088 3 1087 153 -1065 c85 -586
156 -1075 159 -1088 l5 -22 276 2 276 3 147 1095 c80 602 149 1104 152 1115 2
11 5 -483 6 -1097 l1 -1118 390 0 390 0 0 1700 0 1700 -579 0 -579 0 -6 -32
c-3 -18 -46 -355 -96 -748 -50 -393 -94 -728 -98 -744 -5 -21 -40 197 -115
725 -59 416 -110 765 -114 777 l-5 22 -574 0 -574 0 0 -1700z"/>
<path d="M16000 4950 l0 -1700 770 0 770 0 0 340 0 340 -325 0 -325 0 0 370 0
370 275 0 275 0 0 330 0 330 -275 0 -275 0 0 320 0 320 295 0 295 0 0 340 0
340 -740 0 -740 0 0 -1700z"/>
<path d="M17800 6310 l0 -340 260 0 260 0 0 -1360 0 -1360 445 0 445 0 0 1360
0 1360 265 0 265 0 0 340 0 340 -970 0 -970 0 0 -340z"/>
<path d="M20150 4951 l0 -1701 445 0 445 0 0 765 0 765 35 0 c59 0 135 -21
164 -46 54 -45 54 -52 58 -796 l4 -688 415 0 414 0 0 553 c0 634 -8 805 -40
890 -51 136 -167 241 -322 292 -46 15 -87 30 -92 33 -5 3 31 13 79 23 167 34
271 108 315 225 70 188 78 613 16 858 -37 145 -78 218 -176 316 -95 96 -154
129 -278 160 -143 36 -265 42 -879 47 l-603 5 0 -1701z m974 1109 c86 -13 127
-38 152 -92 17 -38 19 -67 19 -268 0 -124 -4 -242 -8 -262 -16 -78 -67 -110
-194 -122 l-53 -5 0 379 c0 209 3 380 8 380 4 0 38 -5 76 -10z"/>
<path d="M25250 4950 l0 -1700 445 0 445 0 0 684 0 684 238 4 c213 5 247 8
333 31 230 61 359 172 407 354 32 118 42 256 42 569 0 552 -34 716 -180 865
-101 103 -290 175 -524 198 -65 7 -333 11 -658 11 l-548 0 0 -1700z m1044
1098 c50 -12 91 -53 105 -104 18 -63 15 -559 -4 -620 -24 -82 -67 -111 -180
-121 l-75 -6 0 437 0 437 58 -6 c31 -4 75 -11 96 -17z"/>
<path d="M30190 4950 l0 -1700 715 0 715 0 0 340 0 340 -270 0 -270 0 0 1360
0 1360 -445 0 -445 0 0 -1700z"/>
<path d="M32040 4950 l0 -1700 445 0 445 0 0 1700 0 1700 -445 0 -445 0 0
-1700z"/>
<path d="M33350 6310 l0 -340 260 0 260 0 0 -1360 0 -1360 445 0 445 0 0 1360
0 1360 265 0 265 0 0 340 0 340 -970 0 -970 0 0 -340z"/>
<path d="M35775 6628 c-6 -29 -445 -3344 -445 -3364 0 -12 66 -14 458 -14
l458 0 23 273 c12 149 25 287 28 305 l5 32 154 0 c85 0 154 -3 154 -7 2 -60
49 -595 52 -598 3 -3 207 -4 454 -3 l450 3 -253 1695 c-139 932 -252 1696
-253 1698 0 1 -288 2 -640 2 l-640 0 -5 -22z m735 -1408 c17 -184 41 -428 53
-542 l23 -208 -148 0 c-148 0 -148 0 -148 23 0 70 66 648 125 1087 19 146 36
270 36 275 1 6 8 -60 15 -145 8 -85 28 -306 44 -490z"/>
<path d="M37930 4950 l0 -1700 370 0 370 0 2 761 3 761 226 -759 225 -758 392
-3 392 -2 0 1700 0 1700 -375 0 -375 0 -2 -746 -3 -747 -241 744 -240 744
-372 3 -372 2 0 -1700z"/>
<path d="M40499 4953 l-225 -1698 455 -3 c250 -1 456 0 459 3 3 3 17 139 31
303 l26 297 156 3 156 2 6 -62 c3 -35 13 -172 23 -305 l18 -243 453 0 c356 0
453 3 453 13 0 6 -112 768 -250 1693 -137 924 -250 1684 -250 1687 0 4 -289 7
-643 7 l-643 0 -225 -1697z m929 595 c20 -233 67 -721 98 -1015 l7 -63 -148 0
-148 0 7 94 c15 215 144 1266 156 1266 3 0 16 -127 28 -282z"/>
<path d="M781 6629 c-45 -14 -125 -96 -141 -145 -7 -21 -16 -43 -20 -49 -14
-17 -51 -176 -48 -203 3 -27 4 -27 118 -58 30 -8 69 -20 85 -28 17 -7 62 -21
100 -30 39 -9 88 -25 110 -35 83 -39 85 -38 104 54 7 33 23 83 34 110 17 38
22 71 22 135 0 75 -3 90 -26 125 -33 50 -75 93 -112 111 -35 19 -181 27 -226
13z m167 -88 c17 -5 52 -27 77 -48 l44 -38 1 -82 c0 -45 -4 -85 -10 -88 -5 -3
-17 -31 -26 -61 -10 -35 -21 -54 -31 -54 -30 0 -209 53 -259 76 -28 13 -58 24
-67 24 -26 0 -28 15 -7 82 28 90 72 162 112 181 37 18 116 22 166 8z"/>
<path d="M8980 6454 c0 -27 20 -54 40 -54 10 0 42 -5 70 -12 59 -13 63 -20
100 -160 38 -138 38 -132 -14 -183 -34 -34 -46 -54 -46 -75 0 -61 10 -54 231
160 42 41 82 80 88 85 6 6 22 21 36 35 13 14 33 34 44 44 24 22 28 68 7 85 -8
7 -81 21 -163 32 -81 10 -191 28 -243 39 -117 24 -150 25 -150 4z m375 -114
c44 -6 83 -14 88 -19 7 -7 -131 -151 -154 -159 -11 -4 -23 26 -42 103 -8 33
-18 68 -22 79 -7 16 -4 18 21 12 16 -3 65 -10 109 -16z"/>
<path d="M511 5991 c-14 -25 -14 -58 0 -66 6 -4 38 -11 72 -15 55 -8 177 -29
359 -62 71 -13 88 -7 88 31 0 34 -12 39 -157 67 -41 8 -79 16 -84 19 -5 3 -64
13 -131 21 -67 8 -125 17 -129 20 -5 2 -13 -4 -18 -15z"/>
<path d="M9461 5876 c-42 -43 -52 -93 -44 -207 9 -140 -13 -199 -74 -199 -48
0 -73 22 -99 85 -29 71 -28 131 4 240 22 73 18 95 -19 95 -32 0 -69 -120 -69
-223 1 -61 23 -161 41 -185 41 -54 71 -75 113 -79 56 -7 83 0 119 29 48 38 57
76 57 228 0 76 3 146 6 155 4 9 18 21 31 26 86 32 142 -124 95 -262 -11 -30
-21 -60 -23 -68 -5 -19 41 -43 57 -30 16 13 44 139 44 195 0 57 -25 152 -47
178 -38 46 -58 56 -109 56 -44 0 -54 -4 -83 -34z"/>
<path d="M528 5742 c-72 -90 -98 -161 -98 -269 1 -50 6 -97 13 -110 18 -31 86
-83 111 -83 29 0 76 26 95 52 32 44 71 124 71 145 0 12 7 48 15 80 16 61 58
113 93 113 19 0 62 -41 81 -77 31 -61 -15 -219 -83 -282 -32 -30 -33 -46 -2
-66 30 -20 48 -12 80 34 48 69 86 185 85 259 -2 186 -163 279 -271 156 -44
-50 -64 -99 -73 -175 -12 -102 -59 -165 -110 -145 -27 10 -37 57 -31 135 6 74
17 97 86 178 13 16 13 32 -2 47 -23 22 -46 25 -60 8z"/>
<path d="M9620 5279 c-47 -4 -130 -7 -185 -8 -122 -1 -173 -14 -185 -46 -5
-12 -14 -25 -20 -27 -27 -9 -39 -159 -19 -231 12 -43 52 -107 77 -122 17 -10
448 -9 464 1 13 8 9 51 -6 63 -11 9 -63 11 -203 6 -210 -8 -233 -4 -259 47
-23 45 -24 153 -1 195 21 40 28 41 261 51 154 6 180 9 190 25 8 12 8 22 0 34
-13 21 -12 21 -114 12z"/>
<path d="M501 5127 c-19 -6 -44 -25 -55 -40 -19 -26 -21 -44 -24 -216 -2 -146
0 -190 10 -197 7 -5 120 -8 259 -6 l247 3 5 27 c9 48 -7 54 -108 47 -115 -9
-117 -7 -113 110 3 76 6 89 23 99 11 6 52 32 90 57 39 25 78 48 88 52 12 4 17
17 17 43 0 33 -2 36 -23 30 -13 -3 -61 -27 -106 -52 l-82 -47 -47 46 c-40 39
-55 47 -97 51 -29 4 -64 1 -84 -7z m122 -81 c16 -12 19 -32 20 -158 l2 -143
-72 -3 c-70 -3 -73 -2 -79 22 -11 47 0 261 15 279 17 21 88 22 114 3z"/>
<path d="M9206 4675 c-17 -46 -2 -65 52 -65 47 0 292 -43 292 -51 0 -4 -12
-17 -27 -28 -16 -12 -35 -26 -43 -33 -8 -7 -30 -21 -50 -30 -33 -17 -123 -79
-162 -112 -9 -8 -30 -22 -45 -30 -42 -21 -74 -59 -64 -75 13 -20 333 -68 469
-70 l52 -1 0 38 0 38 -137 13 c-184 16 -213 21 -213 36 0 7 15 20 33 28 18 9
43 27 56 41 14 14 29 26 34 26 5 0 34 18 66 40 31 22 61 40 67 40 5 0 17 8 25
18 9 9 37 32 63 50 36 25 47 38 44 55 -2 18 -10 22 -48 25 -25 1 -79 9 -120
17 -41 8 -120 19 -175 25 -55 6 -114 13 -131 16 -23 4 -33 2 -38 -11z"/>
<path d="M911 4571 c-9 -6 -12 -20 -8 -47 19 -129 40 -324 36 -328 -2 -3 -41
-6 -84 -8 l-80 -3 -11 60 c-7 33 -15 77 -18 98 -6 30 -11 37 -30 37 -40 0 -47
-20 -32 -81 8 -30 16 -72 18 -94 l3 -39 -60 -12 c-33 -7 -64 -9 -69 -4 -11 10
-41 141 -58 248 -12 80 -13 83 -38 80 -24 -3 -25 -6 -23 -63 1 -33 11 -105 22
-159 12 -55 21 -118 21 -141 0 -24 6 -47 12 -53 13 -10 78 0 213 32 33 8 108
20 167 27 58 6 111 15 117 18 12 8 -9 224 -35 351 -17 83 -31 101 -63 81z"/>
<path d="M9235 4060 c-11 -5 -32 -11 -46 -14 -33 -7 -115 -89 -136 -136 -11
-24 -17 -64 -16 -125 0 -101 22 -160 69 -185 22 -12 27 -11 47 8 19 20 20 24
7 45 -57 90 -64 158 -23 237 37 72 76 95 163 95 70 0 156 -33 167 -64 3 -9 13
-24 21 -33 8 -9 16 -45 19 -80 4 -55 1 -70 -24 -118 -23 -45 -37 -59 -75 -77
-53 -25 -56 -31 -30 -63 39 -48 132 13 180 119 72 159 -1 333 -159 381 -67 21
-130 25 -164 10z"/>
<path d="M550 3903 c0 -45 25 -61 112 -68 46 -3 106 -12 133 -20 28 -7 80 -18
117 -25 71 -13 101 -32 74 -47 -18 -10 -193 -171 -262 -241 -39 -39 -51 -57
-47 -73 11 -40 33 -32 106 39 39 38 95 90 124 115 28 25 67 60 85 78 19 19 58
55 87 80 47 41 52 49 42 67 -8 15 -25 23 -59 27 -93 12 -177 27 -202 36 -14 5
-79 16 -145 24 -66 8 -130 17 -142 21 -18 5 -23 2 -23 -13z"/>
<path d="M8930 3514 c-15 -40 -12 -54 15 -64 15 -6 50 -21 79 -35 29 -14 62
-25 72 -25 11 0 29 -7 40 -15 12 -8 55 -25 95 -39 41 -14 92 -34 114 -46 49
-25 62 -25 75 -1 29 56 19 62 -260 161 -79 28 -169 69 -176 81 -11 19 -45 8
-54 -17z"/>
<path d="M1166 3449 c-32 -11 -68 -26 -80 -34 -11 -7 -36 -16 -54 -20 -18 -4
-62 -20 -97 -36 -36 -16 -72 -29 -81 -29 -25 0 -104 -49 -104 -64 0 -8 6 -19
14 -25 19 -16 75 -1 186 49 47 21 105 44 130 51 25 6 56 19 69 27 13 7 41 19
64 26 48 14 54 25 30 54 l-18 21 -59 -20z"/>
<path d="M8887 3255 c-52 -20 -124 -80 -132 -113 -4 -15 -14 -35 -23 -46 -12
-13 -18 -41 -20 -95 -6 -129 43 -208 173 -277 170 -90 385 56 385 261 -1 86
-34 167 -84 204 -11 8 -28 23 -37 32 -43 43 -187 61 -262 34z m189 -83 c43
-25 94 -86 105 -124 15 -57 4 -140 -24 -183 -23 -37 -109 -85 -151 -85 -41 0
-137 42 -154 67 -9 13 -28 38 -41 54 -19 25 -24 42 -24 88 1 49 6 64 39 113
36 53 58 70 109 82 24 5 125 -3 141 -12z"/>
<path d="M1280 3247 c-14 -6 -27 -14 -30 -18 -3 -4 -36 -21 -75 -38 -38 -18
-79 -40 -90 -50 -11 -10 -37 -24 -59 -31 -21 -7 -53 -22 -71 -35 -18 -12 -47
-28 -64 -35 -35 -14 -38 -26 -16 -57 17 -24 32 -22 76 8 51 35 248 131 258
125 12 -8 7 -25 -30 -97 -16 -31 -29 -64 -29 -73 0 -9 -13 -45 -29 -79 -16
-34 -34 -82 -41 -107 -7 -25 -18 -57 -26 -72 -29 -54 -9 -83 34 -51 15 11 53
30 85 42 31 13 60 28 63 33 3 5 66 38 139 73 73 36 135 72 139 80 7 20 -10 55
-27 55 -7 0 -37 -13 -67 -29 -30 -16 -84 -44 -120 -62 -36 -17 -72 -37 -80
-44 -20 -16 -59 -25 -65 -15 -3 4 6 28 20 53 14 24 35 73 46 108 11 35 29 81
39 104 10 22 24 59 30 83 6 23 20 58 32 77 16 29 18 38 8 50 -14 17 -17 17
-50 2z"/>
<path d="M8557 2742 c-26 -29 -20 -50 21 -76 20 -14 62 -42 93 -63 31 -21 65
-44 75 -51 10 -7 31 -17 46 -23 51 -20 41 -36 -25 -42 -34 -3 -111 -10 -172
-15 -192 -17 -265 -35 -265 -66 0 -12 95 -86 110 -86 5 0 15 -8 22 -19 7 -10
28 -26 46 -35 18 -9 41 -25 51 -35 33 -33 171 -121 190 -121 9 0 24 11 31 25
12 22 11 26 -11 44 -13 11 -28 20 -32 21 -5 0 -22 13 -38 29 -16 16 -42 35
-59 43 -16 7 -30 16 -30 19 0 3 -26 24 -57 45 l-58 38 185 17 c173 15 242 24
298 35 17 3 22 11 22 34 0 17 -4 30 -10 30 -5 0 -32 16 -59 35 -26 19 -55 35
-64 35 -8 0 -17 7 -20 15 -4 8 -24 23 -46 34 -22 12 -44 27 -48 33 -4 7 -24
22 -43 32 -19 11 -53 34 -76 53 -47 38 -55 40 -77 15z"/>
<path d="M1510 2673 c-25 -8 -47 -18 -50 -22 -9 -14 -119 -91 -129 -91 -5 0
-35 -20 -68 -43 -32 -24 -66 -47 -75 -50 -23 -8 -23 -30 0 -50 27 -24 45 -21
78 13 16 16 48 39 72 51 23 11 42 25 42 29 0 5 21 19 48 31 26 13 56 30 67 39
42 34 78 42 118 25 20 -8 37 -20 37 -27 0 -6 14 -24 31 -39 25 -22 31 -37 36
-82 5 -52 4 -56 -26 -83 -18 -16 -46 -37 -62 -46 -17 -9 -38 -24 -47 -33 -10
-8 -33 -26 -52 -40 -121 -84 -141 -98 -145 -105 -3 -4 4 -19 14 -31 l19 -24
39 20 c43 22 71 42 143 101 27 22 62 47 76 55 15 7 45 31 68 51 l41 38 0 78
c0 72 -2 81 -30 115 -67 83 -105 118 -137 128 -43 12 -54 11 -108 -8z"/>
<path d="M38931 2523 c-7 -15 -37 -65 -67 -110 -30 -46 -54 -88 -54 -93 0 -6
19 -10 43 -10 41 0 48 4 118 78 74 76 129 143 129 155 0 4 -35 7 -78 7 -76 0
-79 -1 -91 -27z"/>
<path d="M24169 2226 c-112 -30 -189 -104 -209 -201 -22 -105 8 -204 82 -272
54 -49 87 -67 230 -122 58 -23 124 -55 146 -71 115 -83 80 -263 -58 -300 -97
-26 -249 -12 -403 37 -16 5 -18 -1 -15 -58 l3 -63 60 -18 c80 -25 243 -34 330
-19 126 22 224 88 261 176 39 95 22 222 -39 292 -46 52 -104 86 -238 138 -186
73 -232 115 -233 215 -1 67 18 102 74 135 67 38 214 37 334 -5 42 -14 58 -16
61 -7 3 7 11 31 20 55 l15 43 -37 16 c-98 40 -288 55 -384 29z"/>
<path d="M33400 2225 c-178 -49 -289 -162 -347 -351 -14 -46 -18 -91 -17 -199
0 -122 4 -150 26 -217 59 -177 167 -278 337 -314 107 -22 269 -15 369 17 31
10 32 12 32 65 0 30 -3 54 -7 54 -3 0 -42 -7 -85 -16 -53 -11 -114 -15 -182
-12 -86 3 -110 8 -158 31 -131 64 -198 199 -198 402 0 193 74 337 207 404 88
44 237 44 359 2 32 -12 58 -20 59 -18 12 14 44 101 39 108 -2 5 -35 18 -72 30
-89 29 -281 36 -362 14z"/>
<path d="M38760 2224 c-84 -23 -137 -52 -195 -108 -100 -98 -145 -231 -145
-430 0 -207 45 -331 156 -435 96 -90 216 -128 374 -118 229 15 382 147 436
374 22 92 22 278 0 363 -62 244 -226 371 -475 369 -53 0 -121 -7 -151 -15z
m292 -120 c61 -20 126 -79 161 -143 50 -91 69 -259 47 -399 -31 -187 -123
-289 -282 -311 -126 -17 -242 14 -313 84 -143 143 -153 506 -19 682 74 97 260
137 406 87z"/>
<path d="M12705 2219 c-3 -8 -4 -252 -3 -544 l3 -530 195 1 c221 1 309 15 409
65 72 36 159 126 194 201 54 113 71 295 42 433 -39 183 -159 310 -341 361 -82
23 -491 33 -499 13z m506 -141 c107 -49 174 -133 199 -249 19 -85 8 -269 -19
-340 -41 -107 -130 -181 -256 -214 -38 -9 -104 -15 -182 -15 l-123 0 0 426 0
426 163 -4 c150 -3 166 -5 218 -30z"/>
<path d="M15805 2218 c-3 -7 -4 -251 -3 -543 l3 -530 300 0 300 0 3 58 3 57
-241 0 -240 0 0 195 0 195 223 2 222 3 3 58 3 57 -226 0 -225 0 0 170 0 170
238 2 237 3 0 55 0 55 -298 3 c-233 2 -299 0 -302 -10z"/>
<path d="M21116 1695 c-115 -293 -209 -538 -210 -542 0 -4 27 -9 61 -11 l61
-3 42 108 c23 59 53 138 67 176 l25 67 215 0 c196 0 215 -2 220 -17 2 -10 32
-88 66 -173 l62 -155 64 -3 c62 -3 63 -2 58 20 -4 13 -98 258 -209 545 l-203
523 -55 0 -55 0 -209 -535z m293 295 c11 -36 47 -136 80 -222 l59 -158 -169 0
-168 0 26 68 c71 188 133 363 133 379 0 30 16 1 39 -67z"/>
<path d="M26834 2216 c-3 -7 -4 -188 -2 -402 4 -432 5 -442 73 -536 66 -90
163 -137 305 -145 144 -9 265 33 346 119 95 102 105 164 102 623 l-3 350 -62
3 -62 3 -3 -398 c-4 -451 -4 -451 -84 -521 -53 -48 -108 -65 -204 -64 -129 2
-196 35 -245 123 l-30 54 -3 403 -3 402 -60 0 c-41 0 -61 -4 -65 -14z"/>
<path d="M29945 2218 c-3 -7 -4 -251 -3 -543 l3 -530 58 -3 58 -3 -3 454 -3
454 41 -61 c22 -33 154 -238 294 -454 l254 -393 71 3 70 3 0 540 0 540 -60 0
-60 0 1 -443 c1 -244 -2 -440 -6 -435 -4 4 -135 205 -290 446 l-283 437 -69 0
c-46 0 -70 -4 -73 -12z"/>
<path d="M36045 2218 c-3 -7 -4 -251 -3 -543 l3 -530 63 -3 62 -3 0 546 0 545
-60 0 c-39 0 -62 -4 -65 -12z"/>
<path d="M41650 1685 l0 -546 58 3 57 3 0 447 c0 245 1 445 3 443 2 -2 133
-203 291 -447 l287 -443 72 -3 72 -3 0 546 0 546 -57 -3 -58 -3 0 -447 0 -447
-105 162 c-58 89 -188 290 -290 447 l-185 285 -73 3 -72 3 0 -546z"/>
<path d="M8851 1904 c-1 -6 5 -17 12 -23 10 -8 14 -7 14 4 0 8 -4 12 -8 9 -4
-2 -10 2 -12 8 -4 8 -6 9 -6 2z"/>
<path d="M8696 1756 c-46 -52 -53 -69 -17 -44 12 8 19 17 16 20 -3 2 1 5 9 5
8 0 12 -6 9 -14 -3 -7 -12 -13 -19 -13 -8 0 -17 -7 -20 -15 -4 -10 -13 -13
-24 -10 -13 4 -20 -1 -25 -15 -4 -11 -11 -18 -16 -15 -5 4 -9 2 -9 -2 0 -5
-16 -26 -35 -46 -39 -42 -44 -52 -16 -38 18 10 31 6 31 -10 0 -5 -10 -14 -22
-20 -21 -11 -22 -11 -10 4 25 30 -30 16 -66 -17 -24 -22 -30 -35 -26 -50 6
-18 4 -19 -8 -9 -12 10 -20 7 -46 -20 -18 -18 -29 -37 -25 -41 5 -4 3 -6 -2
-4 -15 4 -106 -72 -99 -83 3 -5 0 -8 -7 -7 -7 2 -18 -8 -25 -21 -7 -14 -20
-26 -28 -27 -9 -1 -34 -17 -57 -35 -29 -23 -37 -34 -28 -40 7 -4 17 -5 23 -2
5 3 6 1 2 -5 -5 -9 -13 -9 -27 -2 -16 9 -28 4 -69 -27 -27 -21 -47 -44 -45
-50 2 -7 1 -12 -3 -12 -20 3 -34 -4 -81 -41 -28 -22 -55 -40 -60 -40 -6 0 -14
-6 -18 -12 -10 -17 -69 -58 -82 -58 -5 0 -11 -3 -13 -7 -3 -8 -115 -85 -133
-92 -5 -2 -23 -13 -40 -25 -39 -27 -64 -43 -95 -56 -13 -6 -27 -14 -30 -18 -3
-4 -18 -14 -35 -24 -40 -22 -435 -218 -460 -229 -11 -4 -42 -17 -70 -29 -251
-107 -589 -212 -845 -264 -47 -10 -105 -22 -128 -27 -131 -29 -399 -61 -637
-76 -257 -16 -284 -16 -560 1 -159 10 -312 22 -340 27 -27 6 -95 16 -150 24
-91 12 -137 21 -305 56 -194 41 -562 151 -723 217 -16 7 -30 12 -32 12 -4 0
-40 15 -140 60 -11 5 -45 19 -75 31 -30 13 -70 31 -88 41 -33 18 -34 18 -63
-3 -17 -12 -27 -24 -24 -27 3 -4 9 -2 13 3 4 6 13 11 21 13 12 3 12 0 2 -12
-9 -11 -9 -16 0 -22 8 -5 10 -3 4 7 -4 8 2 4 15 -9 12 -13 29 -21 37 -18 8 3
12 2 9 -2 -3 -5 14 -17 37 -27 23 -9 69 -30 102 -45 33 -15 87 -37 120 -50 33
-12 64 -25 70 -29 5 -5 21 -11 35 -14 14 -3 57 -17 95 -32 39 -14 86 -31 105
-36 19 -5 51 -16 70 -23 19 -8 64 -22 100 -31 36 -10 93 -26 127 -36 34 -11
70 -19 80 -19 10 0 50 -8 88 -19 146 -40 454 -85 725 -107 510 -41 1118 15
1610 148 155 42 312 89 355 107 11 5 49 19 85 31 36 12 84 30 107 41 24 10 47
19 53 19 10 0 34 10 163 70 162 75 254 120 328 161 41 23 97 53 124 68 47 23
107 60 130 79 6 4 36 23 67 41 32 18 62 40 68 49 5 9 10 13 10 9 0 -8 53 26
78 50 7 7 18 13 23 13 6 0 7 5 3 12 -5 7 -3 8 5 4 8 -5 31 8 61 33 27 23 53
41 59 41 6 0 15 9 21 20 6 11 15 18 21 15 5 -4 9 -3 9 2 0 4 14 16 31 25 17
10 28 22 24 27 -5 9 32 36 45 33 3 0 5 5 4 12 -1 6 7 13 17 13 19 2 69 41 69
55 0 5 -12 6 -26 4 -15 -3 -24 -2 -20 1 11 11 39 13 51 3 6 -5 21 1 38 16 23
20 25 24 10 24 -17 1 -17 1 0 11 9 5 21 8 26 5 5 -3 15 2 22 12 13 15 12 16
-3 3 -11 -8 -18 -9 -18 -3 0 6 5 14 10 17 8 5 7 12 -2 23 -12 15 -11 16 6 2
16 -13 20 -12 32 5 11 15 11 20 1 27 -17 11 -3 10 29 -2 23 -9 25 -9 15 4 -9
11 -9 16 0 22 8 4 9 3 5 -4 -4 -7 -1 -12 9 -12 12 0 14 4 6 19 -9 15 -7 18 14
16 27 -3 57 25 61 58 4 33 4 33 13 18 5 -7 14 -10 20 -6 8 5 9 11 2 19 -14 17
-1 29 16 15 10 -9 13 -8 13 5 0 9 6 16 13 16 6 0 23 12 37 27 14 15 19 23 13
19 -17 -10 -16 2 1 20 18 17 29 18 21 2 -4 -7 2 -2 13 11 12 14 17 32 14 45
-5 18 -3 19 10 8 14 -11 19 -9 32 10 11 15 12 24 5 27 -6 2 -1 10 10 18 12 8
22 24 22 36 1 17 2 18 6 5 9 -35 40 -11 35 27 -2 17 -1 17 7 5 8 -11 11 -11
11 -2 0 7 5 10 12 6 6 -4 8 -3 4 4 -3 5 -1 12 6 14 7 3 -6 4 -29 4 -37 0 -47
-5 -87 -50z m58 26 c3 -5 -1 -9 -9 -9 -8 0 -12 4 -9 9 3 4 7 8 9 8 2 0 6 -4 9
-8z m16 -26 c0 -3 -4 -8 -10 -11 -5 -3 -10 -1 -10 4 0 6 5 11 10 11 6 0 10 -2
10 -4z m-88 -98 c-7 -7 -12 -8 -12 -2 0 14 12 26 19 19 2 -3 -1 -11 -7 -17z
m-43 -42 c-14 -15 -22 0 -13 26 7 22 7 22 14 3 4 -11 4 -24 -1 -29z m-39 -16
c0 -5 -5 -10 -11 -10 -5 0 -7 5 -4 10 3 6 8 10 11 10 2 0 4 -4 4 -10z m-105
-90 c-16 -16 -30 -28 -33 -26 -5 6 51 64 57 59 3 -2 -8 -17 -24 -33z m-50 -70
c-3 -4 0 -10 6 -12 7 -2 6 -8 -3 -16 -12 -9 -14 -6 -14 18 0 16 3 27 8 24 5
-3 6 -9 3 -14z m-25 -4 c0 -3 -4 -8 -10 -11 -5 -3 -10 -1 -10 4 0 6 5 11 10
11 6 0 10 -2 10 -4z m-175 -207 c-4 -5 -12 -9 -18 -8 -9 0 -8 2 1 6 6 2 9 10
6 15 -4 7 -2 8 5 4 6 -4 9 -12 6 -17z"/>
<path d="M8346 1325 c-9 -26 -7 -32 5 -12 6 10 9 21 6 23 -2 3 -7 -2 -11 -11z"/>
<path d="M7115 1318 c-16 -6 -47 -22 -67 -35 -21 -12 -42 -23 -48 -23 -13 0
-48 -20 -75 -41 -11 -9 -32 -19 -47 -23 -22 -5 -28 -12 -28 -33 0 -15 9 -36
19 -47 25 -27 61 -96 61 -117 0 -9 9 -24 20 -34 11 -10 20 -26 20 -35 0 -10 7
-23 15 -30 8 -7 15 -21 15 -31 0 -9 6 -24 13 -31 7 -7 22 -28 32 -45 19 -33
38 -40 63 -24 13 8 3 36 -54 143 -8 14 -14 32 -14 40 1 18 115 88 144 88 12 0
41 -16 63 -35 23 -19 45 -35 49 -35 4 0 25 -12 46 -27 33 -22 42 -24 63 -15
14 6 25 16 25 21 0 11 -89 79 -136 104 -39 20 -39 22 -19 70 53 126 -39 238
-160 195z m87 -75 c11 -10 18 -30 18 -54 0 -31 -6 -42 -32 -63 -52 -39 -174
-97 -191 -91 -8 4 -21 19 -27 35 -7 16 -18 35 -26 41 -33 27 -2 69 62 85 16 4
37 14 47 22 49 43 117 54 149 25z"/>
<path d="M3153 1221 c-10 -10 -33 -26 -50 -35 -18 -9 -33 -21 -33 -26 0 -5
-15 -20 -34 -32 -119 -81 -186 -130 -186 -137 0 -5 -14 -14 -30 -21 -33 -14
-57 -47 -43 -60 22 -21 52 -20 79 3 63 52 105 57 149 18 11 -10 42 -26 69 -36
70 -27 76 -36 76 -119 0 -77 9 -96 47 -96 23 0 23 1 24 123 0 67 4 183 8 257
7 110 6 139 -5 158 -18 27 -47 28 -71 3z m7 -185 c0 -47 -4 -87 -9 -90 -9 -6
-106 30 -128 47 -23 17 -14 44 17 57 17 7 30 16 30 21 0 8 64 45 83 48 4 1 7
-37 7 -83z"/>
<path d="M6765 1141 c-3 -5 -20 -13 -38 -17 -17 -3 -57 -18 -87 -31 -30 -14
-75 -31 -100 -39 -25 -7 -54 -20 -65 -28 -18 -13 -18 -17 -5 -57 7 -24 17 -48
22 -53 4 -6 8 -17 8 -25 1 -9 9 -34 20 -56 11 -22 19 -48 20 -57 0 -9 5 -20
10 -23 6 -3 10 -13 10 -22 0 -18 67 -163 75 -163 3 0 22 7 43 16 20 9 59 23
86 31 27 8 59 21 70 28 12 7 46 21 76 30 67 21 84 36 75 64 -9 30 -40 27 -117
-13 -77 -39 -193 -80 -206 -72 -5 3 -19 36 -32 72 -26 79 -25 81 66 110 65 20
89 43 71 67 -11 15 -17 15 -62 3 -27 -7 -65 -21 -83 -30 -24 -12 -37 -14 -46
-7 -17 14 -40 86 -33 103 6 18 122 76 168 85 19 3 51 17 72 30 33 21 36 25 25
43 -14 21 -33 26 -43 11z"/>
<path d="M3463 1063 c-10 -21 -25 -58 -32 -83 -8 -25 -26 -70 -41 -100 -46
-94 -83 -219 -70 -235 6 -8 41 -23 78 -35 36 -12 84 -32 107 -45 63 -36 100
-41 119 -14 14 21 14 25 0 40 -8 9 -32 20 -52 24 -20 3 -46 12 -57 19 -11 7
-41 21 -67 31 -33 12 -48 23 -48 36 0 10 4 20 9 23 5 3 14 27 20 53 7 26 23
70 37 98 21 45 50 122 71 189 6 19 -11 36 -38 36 -10 0 -26 -17 -36 -37z"/>
<path d="M6263 955 c-50 -13 -100 -28 -110 -33 -10 -6 -46 -15 -81 -21 -79
-15 -112 -30 -112 -50 1 -39 13 -42 99 -21 46 12 89 19 96 17 6 -3 21 -45 33
-94 25 -99 81 -274 92 -286 13 -14 50 3 50 22 0 10 -7 36 -16 57 -9 22 -25 79
-35 127 -10 49 -28 109 -39 134 -32 72 -29 80 38 93 94 19 127 34 127 55 0 29
-34 28 -142 0z"/>
<path d="M3795 958 c-2 -7 -9 -43 -15 -80 -6 -38 -23 -107 -38 -155 -59 -186
-61 -243 -7 -243 27 0 41 31 50 110 6 50 21 107 48 183 10 28 11 26 45 -50 19
-43 40 -103 46 -133 8 -36 17 -56 28 -58 9 -2 36 16 61 40 24 24 72 70 106
102 34 32 64 57 67 54 2 -3 -7 -41 -21 -84 -13 -44 -25 -89 -25 -101 0 -12 -7
-48 -15 -79 -14 -52 -13 -59 2 -76 39 -43 62 -6 93 146 10 50 31 139 46 198
23 88 25 110 14 123 -7 8 -20 15 -29 15 -18 0 -159 -120 -180 -153 -7 -12 -29
-33 -49 -45 -44 -29 -50 -24 -82 81 -30 97 -58 170 -76 196 -16 23 -62 29 -69
9z"/>
<path d="M5804 832 c-7 -4 -21 -52 -33 -107 -11 -55 -28 -120 -36 -144 -9 -24
-22 -76 -31 -115 -8 -39 -19 -84 -26 -99 -13 -34 0 -52 31 -42 27 8 41 36 50
94 5 37 11 47 31 53 45 12 209 48 223 48 8 0 33 -27 57 -60 46 -63 55 -68 85
-47 17 13 17 16 -14 60 -17 25 -36 49 -42 52 -5 4 -21 24 -35 46 -13 22 -32
47 -40 57 -8 9 -42 53 -74 97 -32 44 -66 88 -74 98 -16 17 -52 22 -72 9z m90
-139 c19 -27 47 -60 62 -75 18 -18 25 -31 19 -37 -12 -11 -132 -41 -163 -41
-26 0 -30 34 -8 65 8 11 20 46 27 78 8 31 17 57 21 57 4 0 23 -21 42 -47z"/>
<path d="M4503 783 c-16 -21 -34 -50 -41 -65 -6 -16 -16 -28 -21 -28 -5 0 -15
-15 -22 -32 -7 -18 -22 -42 -32 -53 -10 -11 -25 -33 -32 -50 -7 -16 -24 -41
-37 -55 -23 -24 -82 -130 -76 -135 2 -1 12 -5 24 -9 27 -8 69 24 94 75 11 21
24 39 28 39 38 -1 217 -32 232 -40 11 -6 20 -20 20 -31 0 -52 51 -108 98 -109
14 0 17 36 3 45 -5 3 -15 31 -21 63 -6 31 -15 65 -20 74 -11 19 -46 123 -79
233 -37 123 -68 143 -118 78z m70 -164 c31 -106 32 -113 15 -107 -8 3 -45 9
-81 13 -78 8 -82 18 -37 75 17 21 30 41 30 46 0 14 33 45 44 41 6 -2 19 -33
29 -68z"/>
<path d="M5482 760 c-18 -28 -32 -56 -32 -61 0 -5 -4 -9 -9 -9 -4 0 -16 -19
-25 -42 -9 -24 -30 -65 -46 -91 l-30 -48 -25 18 c-13 10 -27 27 -31 38 -4 11
-21 37 -38 57 -17 20 -40 49 -51 63 -56 73 -72 87 -96 83 -38 -5 -38 -30 0
-391 9 -86 18 -102 50 -92 24 7 27 36 12 143 -19 137 -22 192 -8 192 14 0 57
-41 57 -54 0 -4 21 -33 48 -64 26 -31 56 -67 66 -79 24 -28 28 -28 42 0 74
144 123 227 135 227 7 0 10 -22 28 -208 11 -115 14 -122 42 -122 30 0 33 23
19 149 -7 64 -16 166 -19 226 -6 109 -6 110 -32 113 -21 2 -31 -6 -57 -48z"/>
</g>
</svg>
